<svg width="52" height="52" viewBox="0 0 52 52" fill="none" xmlns="http://www.w3.org/2000/svg">
<path d="M23.8334 36.8332H28.1667V28.1666H36.8334V23.8333H28.1667V15.1666H23.8334V23.8333H15.1667V28.1666H23.8334V36.8332ZM26 47.6666C23.0028 47.6666 20.1862 47.1069 17.55 45.9874C14.9139 44.8319 12.6209 43.2791 10.6709 41.3291C8.72087 39.3791 7.1681 37.086 6.01254 34.4499C4.8931 31.8138 4.33337 28.9971 4.33337 25.9999C4.33337 23.0027 4.8931 20.186 6.01254 17.5499C7.1681 14.9138 8.72087 12.6207 10.6709 10.6708C12.6209 8.72075 14.9139 7.18603 17.55 6.06658C20.1862 4.91103 23.0028 4.33325 26 4.33325C28.9973 4.33325 31.8139 4.91103 34.45 6.06658C37.0862 7.18603 39.3792 8.72075 41.3292 10.6708C43.2792 12.6207 44.8139 14.9138 45.9334 17.5499C47.0889 20.186 47.6667 23.0027 47.6667 25.9999C47.6667 28.9971 47.0889 31.8138 45.9334 34.4499C44.8139 37.086 43.2792 39.3791 41.3292 41.3291C39.3792 43.2791 37.0862 44.8319 34.45 45.9874C31.8139 47.1069 28.9973 47.6666 26 47.6666ZM26 43.3332C30.8389 43.3332 34.9375 41.6541 38.2959 38.2957C41.6542 34.9374 43.3334 30.8388 43.3334 25.9999C43.3334 21.161 41.6542 17.0624 38.2959 13.7041C34.9375 10.3458 30.8389 8.66658 26 8.66658C21.1612 8.66658 17.0625 10.3458 13.7042 13.7041C10.3459 17.0624 8.66671 21.161 8.66671 25.9999C8.66671 30.8388 10.3459 34.9374 13.7042 38.2957C17.0625 41.6541 21.1612 43.3332 26 43.3332Z" fill="#1D1B20"/>
</svg>
