<svg width="50" height="36" viewBox="0 0 50 36" fill="none" xmlns="http://www.w3.org/2000/svg">
<path d="M24.1732 9.16627L8.27787 21.1437V34.0708C8.27787 34.4055 8.4232 34.7265 8.6819 34.9632C8.94059 35.1999 9.29145 35.3328 9.6573 35.3328L19.3185 35.31C19.6831 35.3083 20.0322 35.1746 20.2894 34.9381C20.5466 34.7016 20.691 34.3816 20.691 34.0479V26.4986C20.691 26.1639 20.8363 25.8429 21.095 25.6063C21.3537 25.3696 21.7046 25.2366 22.0704 25.2366H27.5882C27.954 25.2366 28.3049 25.3696 28.5636 25.6063C28.8223 25.8429 28.9676 26.1639 28.9676 26.4986V34.0424C28.967 34.2085 29.0023 34.373 29.0714 34.5266C29.1404 34.6802 29.2419 34.8198 29.3701 34.9374C29.4982 35.055 29.6505 35.1483 29.8181 35.212C29.9858 35.2756 30.1655 35.3084 30.347 35.3084L40.0048 35.3328C40.3706 35.3328 40.7215 35.1999 40.9802 34.9632C41.2389 34.7265 41.3842 34.4055 41.3842 34.0708V21.135L25.4923 9.16627C25.3055 9.02849 25.0727 8.95336 24.8328 8.95336C24.5928 8.95336 24.36 9.02849 24.1732 9.16627ZM49.2814 17.3071L42.0739 11.8717V0.946521C42.0739 0.695488 41.9649 0.454737 41.7709 0.27723C41.5769 0.0997227 41.3137 0 41.0393 0H36.2113C35.9369 0 35.6738 0.0997227 35.4798 0.27723C35.2858 0.454737 35.1768 0.695488 35.1768 0.946521V6.67376L27.458 0.863701C26.7172 0.306025 25.7877 0.0011148 24.8284 0.0011148C23.8691 0.0011148 22.9396 0.306025 22.1989 0.863701L0.375462 17.3071C0.270701 17.3864 0.184028 17.4837 0.120395 17.5936C0.0567617 17.7034 0.017416 17.8237 0.00460571 17.9475C-0.00820455 18.0713 0.00577176 18.1962 0.045736 18.315C0.0857003 18.4339 0.150869 18.5444 0.237519 18.6402L2.43599 21.0853C2.5224 21.1815 2.62869 21.2611 2.74877 21.3196C2.86885 21.3781 3.00036 21.4143 3.13578 21.4263C3.2712 21.4382 3.40786 21.4256 3.53794 21.3892C3.66803 21.3527 3.78898 21.2932 3.89387 21.2139L24.1732 5.93232C24.36 5.79454 24.5928 5.71941 24.8328 5.71941C25.0727 5.71941 25.3055 5.79454 25.4923 5.93232L45.7725 21.2139C45.8772 21.2932 45.998 21.3528 46.1279 21.3894C46.2578 21.4259 46.3943 21.4387 46.5296 21.427C46.6649 21.4153 46.7964 21.3793 46.9165 21.3211C47.0366 21.2628 47.1429 21.1835 47.2295 21.0877L49.428 18.6425C49.5145 18.5462 49.5794 18.4351 49.6189 18.3158C49.6584 18.1964 49.6717 18.0711 49.6581 17.947C49.6445 17.8229 49.6042 17.7025 49.5396 17.5927C49.4749 17.4829 49.3872 17.3858 49.2814 17.3071Z" fill="#1A2225"/>
</svg>
