<svg width="20" height="20" viewBox="0 0 20 20" fill="none" xmlns="http://www.w3.org/2000/svg">
<path d="M15 7C15 6.46957 14.7893 5.96086 14.4142 5.58579C14.0391 5.21071 13.5304 5 13 5M13 13C14.262 12.9996 15.4918 12.6013 16.5144 11.8617C17.537 11.1222 18.3004 10.079 18.6959 8.88052C19.0915 7.68208 19.0991 6.38944 18.7176 5.18644C18.3361 3.98344 17.5851 2.93136 16.5712 2.17983C15.5573 1.42831 14.3323 1.01561 13.0704 1.00043C11.8084 0.985262 10.5739 1.36839 9.54222 2.09533C8.51058 2.82226 7.73442 3.85598 7.32415 5.04946C6.91388 6.24294 6.89038 7.5354 7.257 8.743L7 9L1.293 14.707C1.10545 14.8945 1.00006 15.1488 1 15.414V18C1 18.2652 1.10536 18.5196 1.29289 18.7071C1.48043 18.8946 1.73478 19 2 19H4C4.26522 19 4.51957 18.8946 4.70711 18.7071C4.89464 18.5196 5 18.2652 5 18C5 17.7348 5.10536 17.4804 5.29289 17.2929C5.48043 17.1054 5.73478 17 6 17C6.26522 17 6.51957 16.8946 6.70711 16.7071C6.89464 16.5196 7 16.2652 7 16C7 15.7348 7.10536 15.4804 7.29289 15.2929C7.48043 15.1054 7.73478 15 8 15H8.586C8.8512 14.9999 9.10551 14.8946 9.293 14.707L11 13L11.257 12.743C11.8222 12.914 12.4095 13.0006 13 13Z" stroke="black" stroke-width="2" stroke-linecap="round" stroke-linejoin="round"/>
</svg>
