<svg xmlns="http://www.w3.org/2000/svg" version="1.1" viewBox="312 348 1420 313">
<path transform="translate(865,349)" d="m0 0h59l5 4 12 16 11 16 12 17 13 18 12 16 13 19 9 12 36 51 4 6 1-167 4-6 5-2h62l6 7 1 3v286l-1 9-8 6-22 1h-28l-7-1-8-8-16-23-13-18-12-17-13-18-12-17-11-15-10-14-11-15-13-18-10-13-1 162-1 7-8 7-30 1h-32l-8-6-1-296 2-6 4-3z" fill="#1D2326"></path>
<path transform="translate(645,349)" d="m0 0h77l7 6 10 25 6 17 11 29 12 32 13 34 5 14 15 40 10 27 8 21 8 20 11 29 1 9-7 8-3 1h-68l-8-7-4-8-13-37-3-7v-3h-95l-4 4-6 15-12 34-7 8-2 1h-69l-6-3-3-5 1-8 15-40 9-25 11-29 14-38 11-28 15-40 11-29 13-36 7-19 5-9zm38 109-5 12-7 20-12 32-3 11v5l3 1h42l11-1-1-8-8-24-7-20-4-10-5-15-2-3z" fill="#E0AC15"></path>
<path transform="translate(1560,349)" d="m0 0h39l17 1 5 5 6 12 13 37 12 31 12 33 8 21 7 19 10 26 9 24 10 27 9 23 6 17 7 19 2 4v5l-4 5-3 2-33 1h-33l-7-2-5-5-4-10-11-30-6-13v-2h-96l-1 4-4 8-7 19-7 20-6 8-3 2-6 1h-27l-39-1-4-4-1-2v-7l14-37 9-24 5-13 8-21 11-29 5-13 7-19 45-120 5-13 4-6 3-2zm16 110-5 12-5 15-13 36-4 13 2 4h53l1-1v-8l-10-30-6-15-9-24-1-2z" fill="#1D2326"></path>
<path transform="translate(1166,349)" d="m0 0h130l19 3 17 4 22 9 17 9 12 9 15 14 10 11 10 14 7 12 8 20 6 19 2 16v30l-2 16-8 28-7 16-11 17-9 11-9 10-14 12-15 10-15 8-23 8-32 6h-131l-8-6-1-2v-57l1-3 8-3 128-1 25-7 8-4 9-6 3-3h2v-2l5-5 6-7 7-11 7-19 1-6v-30l-4-13-6-14-8-11-8-9-10-7-14-7-14-4-8-1-20-1-109-1-7-3-2-2-1-37v-21l2-5 4-3z" fill="#E0AC15"></path>
<path transform="translate(568,348)" d="m0 0 7 1 5 7 1 23v33l-3 7-2 2-5 1h-83l-1 12-1 220-8 6-2 1h-59l-10-6-1-10v-223h-84l-6-2-3-3-1-3v-51l1-8 5-5 5-1z" fill="#E0AC15"></path>
<path transform="translate(1176,442)" d="m0 0h5l1 16 1 4h10l2-3 1-17h77l2 18 3 2h7l1-2 1-17 18 1 5 2 3 5 1 32v66l-2 13-4 6-4 4-3 1-100 1h-27l-9-1-8-7-2-5v-94l1-18 9-6zm-16 40-1 48v22l1 11 4 5 4 2h133l5-4 3-7 1-76-1-1z" fill="#E0AD19"></path>
<path transform="translate(1172,494)" d="m0 0h22l1 2v12l-1 1h-10l-12-1z" fill="#E0AC15"></path>
<path transform="translate(1172,543)" d="m0 0h22l1 1v13h-23z" fill="#E0AC15"></path>
<path transform="translate(1175,519)" d="m0 0h19l1 1v13h-22l-1-1v-12z" fill="#E0AC15"></path>
<path transform="translate(1208,494)" d="m0 0h20v15h-21l-1-2 1-12z" fill="#E0AC15"></path>
<path transform="translate(1242,494)" d="m0 0h20v15h-20l-1-1v-12z" fill="#E0AC15"></path>
<path transform="translate(1207,519)" d="m0 0h21v14h-22v-13z" fill="#E0AC15"></path>
<path transform="translate(1207,543)" d="m0 0h21l1 2-1 12h-22v-10z" fill="#E0AC15"></path>
<path transform="translate(1242,543)" d="m0 0h19l1 1v13h-21v-13z" fill="#E0AC15"></path>
<path transform="translate(1243,519)" d="m0 0h18l1 1v13h-20l-1-1v-12z" fill="#E0AC15"></path>
<path transform="translate(1275,520)" d="m0 0h21l1 1v12h-21l-1-1z" fill="#E0AC15"></path>
<path transform="translate(1276,543)" d="m0 0h20v14h-20z" fill="#E0AC15"></path>
<path transform="translate(1276,494)" d="m0 0h20v14h-20z" fill="#E0AC15"></path>
</svg>