<?xml version="1.0" standalone="no"?>
<!DOCTYPE svg PUBLIC "-//W3C//DTD SVG 20010904//EN"
 "http://www.w3.org/TR/2001/REC-SVG-20010904/DTD/svg10.dtd">
<svg version="1.0" xmlns="http://www.w3.org/2000/svg"
 width="600.000000pt" height="600.000000pt" viewBox="0 0 600.000000 600.000000"
 preserveAspectRatio="xMidYMid meet">

<g transform="translate(0.000000,600.000000) scale(0.100000,-0.100000)"
fill="#000000" stroke="none">
<path d="M2538 3439 c-17 -9 -18 -41 -18 -439 0 -399 1 -430 18 -439 23 -12
189 -1 202 14 5 7 11 112 12 249 l3 238 85 -119 c47 -65 88 -122 93 -128 26
-35 67 -91 102 -141 85 -121 75 -115 179 -112 l91 3 3 430 c2 395 1 431 -15
443 -21 15 -156 16 -184 2 -18 -10 -19 -24 -19 -245 0 -129 -4 -235 -8 -235
-7 0 -154 200 -300 410 -50 72 -65 80 -149 80 -43 0 -86 -5 -95 -11z"/>
<path d="M4465 3385 c-14 -31 -25 -60 -25 -65 0 -6 -9 -29 -19 -53 -11 -23
-31 -73 -45 -112 -23 -64 -88 -239 -120 -325 -8 -19 -30 -78 -51 -130 -56
-144 -61 -135 75 -135 131 0 116 -12 170 132 6 17 21 34 33 37 35 9 231 7 246
-3 8 -5 28 -45 46 -88 l31 -78 112 -3 c129 -3 136 1 108 71 -10 23 -40 103
-67 177 -28 74 -61 163 -75 197 -13 34 -24 66 -24 72 0 6 -4 19 -9 29 -19 36
-41 91 -83 207 l-43 120 -118 3 -118 3 -24 -56z m158 -297 c9 -24 25 -68 36
-98 34 -89 34 -90 -60 -90 -94 0 -91 -11 -42 125 27 77 40 105 48 105 2 0 10
-19 18 -42z"/>
</g>
</svg>
