<svg width="46" height="41" viewBox="0 0 46 41" fill="none" xmlns="http://www.w3.org/2000/svg">
<path d="M23 41C35.5799 41 46 31.7323 46 20.5C46 9.28751 35.5799 0 22.9777 0C10.3979 0 0 9.28751 0 20.5C0 31.7323 10.4201 41 23 41ZM23 23.7546C18.636 23.7348 15.2517 20.4802 15.2517 16.1936C15.2294 12.1452 18.6583 8.77154 23 8.77154C27.3195 8.77154 30.726 12.1452 30.726 16.1936C30.726 20.4802 27.3417 23.7943 23 23.7546ZM23 37.6462C18.0126 37.6462 12.7135 35.8006 9.3514 32.5658C11.8896 29.1525 16.9884 27.1878 23 27.1878C28.9448 27.1878 34.0658 29.1128 36.6263 32.5658C33.2643 35.8006 27.9874 37.6462 23 37.6462Z" fill="black"/>
</svg>
